<mxfile host="app.diagrams.net" agent="Mozilla/5.0 (Windows NT 10.0; Win64; x64) AppleWebKit/537.36 (KHTML, like Gecko) Chrome/132.0.0.0 Safari/537.36 OPR/117.0.0.0" version="26.1.1">
  <diagram name="Page-1" id="1uLiJMjGpEjM-PKES-he">
    <mxGraphModel dx="1187" dy="632" grid="1" gridSize="10" guides="1" tooltips="1" connect="1" arrows="1" fold="1" page="1" pageScale="1" pageWidth="1100" pageHeight="850" math="0" shadow="0">
      <root>
        <mxCell id="0" />
        <mxCell id="1" parent="0" />
        <mxCell id="8NMr5PT9xyX_5SzcDHEM-15" value="" style="whiteSpace=wrap;html=1;aspect=fixed;" vertex="1" parent="1">
          <mxGeometry x="360" y="80" width="490" height="490" as="geometry" />
        </mxCell>
        <mxCell id="8NMr5PT9xyX_5SzcDHEM-1" value="User" style="shape=umlActor;verticalLabelPosition=bottom;verticalAlign=top;html=1;" vertex="1" parent="1">
          <mxGeometry x="100" y="235" width="90" height="140" as="geometry" />
        </mxCell>
        <mxCell id="8NMr5PT9xyX_5SzcDHEM-3" value="&lt;font style=&quot;font-size: 15px;&quot;&gt;Setup the simulation&lt;/font&gt;" style="ellipse;whiteSpace=wrap;html=1;" vertex="1" parent="1">
          <mxGeometry x="390" y="110" width="160" height="110" as="geometry" />
        </mxCell>
        <mxCell id="8NMr5PT9xyX_5SzcDHEM-4" value="&lt;font style=&quot;font-size: 12px;&quot;&gt;extends&lt;/font&gt;" style="html=1;verticalAlign=bottom;endArrow=open;dashed=1;endSize=8;curved=0;rounded=0;exitX=0;exitY=0.5;exitDx=0;exitDy=0;entryX=1;entryY=0.5;entryDx=0;entryDy=0;" edge="1" parent="1" source="8NMr5PT9xyX_5SzcDHEM-5" target="8NMr5PT9xyX_5SzcDHEM-3">
          <mxGeometry relative="1" as="geometry">
            <mxPoint x="630" y="164.5" as="sourcePoint" />
            <mxPoint x="550" y="164.5" as="targetPoint" />
          </mxGeometry>
        </mxCell>
        <mxCell id="8NMr5PT9xyX_5SzcDHEM-5" value="&lt;font style=&quot;font-size: 15px;&quot;&gt;View generated data (queues and clients)&lt;/font&gt;" style="ellipse;whiteSpace=wrap;html=1;" vertex="1" parent="1">
          <mxGeometry x="680" y="110" width="160" height="110" as="geometry" />
        </mxCell>
        <mxCell id="8NMr5PT9xyX_5SzcDHEM-7" value="" style="endArrow=none;html=1;rounded=0;exitX=1;exitY=0.3333333333333333;exitDx=0;exitDy=0;exitPerimeter=0;entryX=0;entryY=0.5;entryDx=0;entryDy=0;" edge="1" parent="1" source="8NMr5PT9xyX_5SzcDHEM-1" target="8NMr5PT9xyX_5SzcDHEM-3">
          <mxGeometry width="50" height="50" relative="1" as="geometry">
            <mxPoint x="240" y="190" as="sourcePoint" />
            <mxPoint x="290" y="140" as="targetPoint" />
          </mxGeometry>
        </mxCell>
        <mxCell id="8NMr5PT9xyX_5SzcDHEM-8" value="&lt;font style=&quot;font-size: 15px;&quot;&gt;Start the simulation&lt;/font&gt;" style="ellipse;whiteSpace=wrap;html=1;" vertex="1" parent="1">
          <mxGeometry x="390" y="315" width="160" height="110" as="geometry" />
        </mxCell>
        <mxCell id="8NMr5PT9xyX_5SzcDHEM-9" value="&lt;font style=&quot;font-size: 15px;&quot;&gt;See&amp;nbsp;the real-time queue evolution&amp;nbsp;&lt;/font&gt;" style="ellipse;whiteSpace=wrap;html=1;" vertex="1" parent="1">
          <mxGeometry x="680" y="250" width="160" height="110" as="geometry" />
        </mxCell>
        <mxCell id="8NMr5PT9xyX_5SzcDHEM-10" value="&lt;font style=&quot;font-size: 12px;&quot;&gt;extends&lt;/font&gt;" style="html=1;verticalAlign=bottom;endArrow=open;dashed=1;endSize=8;curved=0;rounded=0;exitX=0;exitY=0.5;exitDx=0;exitDy=0;entryX=1;entryY=0.5;entryDx=0;entryDy=0;" edge="1" parent="1" source="8NMr5PT9xyX_5SzcDHEM-9" target="8NMr5PT9xyX_5SzcDHEM-8">
          <mxGeometry relative="1" as="geometry">
            <mxPoint x="690" y="300" as="sourcePoint" />
            <mxPoint x="560" y="300" as="targetPoint" />
          </mxGeometry>
        </mxCell>
        <mxCell id="8NMr5PT9xyX_5SzcDHEM-11" value="&lt;font style=&quot;font-size: 15px;&quot;&gt;See the log of events&lt;/font&gt;" style="ellipse;whiteSpace=wrap;html=1;" vertex="1" parent="1">
          <mxGeometry x="680" y="400" width="160" height="110" as="geometry" />
        </mxCell>
        <mxCell id="8NMr5PT9xyX_5SzcDHEM-12" value="&lt;font style=&quot;font-size: 12px;&quot;&gt;extends&lt;/font&gt;" style="html=1;verticalAlign=bottom;endArrow=open;dashed=1;endSize=8;curved=0;rounded=0;exitX=0;exitY=0.5;exitDx=0;exitDy=0;" edge="1" parent="1" source="8NMr5PT9xyX_5SzcDHEM-11" target="8NMr5PT9xyX_5SzcDHEM-8">
          <mxGeometry relative="1" as="geometry">
            <mxPoint x="640" y="445" as="sourcePoint" />
            <mxPoint x="510" y="510" as="targetPoint" />
          </mxGeometry>
        </mxCell>
        <mxCell id="8NMr5PT9xyX_5SzcDHEM-13" value="" style="endArrow=none;html=1;rounded=0;entryX=0;entryY=0.5;entryDx=0;entryDy=0;exitX=1;exitY=0.3333333333333333;exitDx=0;exitDy=0;exitPerimeter=0;" edge="1" parent="1" source="8NMr5PT9xyX_5SzcDHEM-1" target="8NMr5PT9xyX_5SzcDHEM-8">
          <mxGeometry width="50" height="50" relative="1" as="geometry">
            <mxPoint x="220" y="350" as="sourcePoint" />
            <mxPoint x="270" y="300" as="targetPoint" />
          </mxGeometry>
        </mxCell>
        <mxCell id="8NMr5PT9xyX_5SzcDHEM-16" value="&lt;font style=&quot;font-size: 17px;&quot;&gt;Queue Management Application&lt;/font&gt;" style="text;html=1;align=center;verticalAlign=middle;whiteSpace=wrap;rounded=0;" vertex="1" parent="1">
          <mxGeometry x="480" y="40" width="250" height="30" as="geometry" />
        </mxCell>
      </root>
    </mxGraphModel>
  </diagram>
</mxfile>
